<?xml version="1.0" standalone="no"?><!DOCTYPE svg PUBLIC "-//W3C//DTD SVG 1.1//EN" "http://www.w3.org/Graphics/SVG/1.1/DTD/svg11.dtd"><svg t="1623828426381" class="icon" viewBox="0 0 1024 1024" version="1.1" xmlns="http://www.w3.org/2000/svg" p-id="11416" xmlns:xlink="http://www.w3.org/1999/xlink" width="200" height="200"><defs><style type="text/css"></style></defs><path d="M458.361905 161.304381c59.830857-38.034286 152.429714 69.973333 135.558095 150.625524l-15.60381 73.142857h225.718858a78.019048 78.019048 0 0 1 77.677714 70.948571l0.341333 7.070477c0 4.87619-0.487619 9.752381-1.365333 14.531047l-66.413714 350.598095a78.019048 78.019048 0 0 1-76.653715 63.488H210.797714a78.019048 78.019048 0 0 1-78.019047-78.019047v-350.598095a78.019048 78.019048 0 0 1 78.019047-78.019048h94.890667c29.598476 0 58.12419-32.768 87.771429-97.718857l7.606857-17.261715 26.477714-63.878095c10.971429-25.014857 18.432-37.059048 30.817524-44.909714zM276.382476 443.587048H210.797714a19.504762 19.504762 0 0 0-19.504762 19.504762v350.598095c0 10.776381 8.728381 19.504762 19.504762 19.504762h65.584762v-389.607619z m212.309334-230.107429l-8.192 17.798095-2.828191 6.582857-18.627048 45.29981-8.289523 19.504762-4.047238 8.97219C414.47619 382.098286 380.68419 426.666667 334.896762 439.637333v393.508572l402.724571 0.048762a19.504762 19.504762 0 0 0 18.041905-12.092953l1.121524-3.754666 66.413714-350.598096a19.504762 19.504762 0 0 0-19.163428-23.161904h-298.081524l30.72-143.60381c4.096-19.504762-5.071238-45.153524-23.113143-66.169905a80.359619 80.359619 0 0 0-23.698286-19.748571l-1.170285-0.585143z" p-id="11417"></path></svg>