<?xml version="1.0" standalone="no"?><!DOCTYPE svg PUBLIC "-//W3C//DTD SVG 1.1//EN" "http://www.w3.org/Graphics/SVG/1.1/DTD/svg11.dtd"><svg t="1624290578786" class="icon" viewBox="0 0 1024 1024" version="1.1" xmlns="http://www.w3.org/2000/svg" p-id="3090" xmlns:xlink="http://www.w3.org/1999/xlink" width="200" height="200"><defs><style type="text/css"></style></defs><path d="M512 67c245.77 0 445 199.23 445 445S757.77 957 512 957 67 757.77 67 512 266.23 67 512 67z m-78.9 395.24c-9.97-10.03-24.44-9.15-36.22 2.53-24.78 24.55-49.61 49.06-74.04 73.96-22.14 22.52-33.15 49.83-33.34 81.43 0.12 44.93 25.51 85.49 66.83 103.49 42.74 18.61 83.75 13.52 118.74-17.2 28.58-25.09 54.78-52.97 81.03-80.62 4.76-5.02 7.52-15.36 6.14-22.22-3.84-19.07-25.86-24.13-40.36-9.96-24.13 23.63-47.69 47.92-71.9 71.51-26.63 25.93-68.75 25.82-94.22 0.19-26.62-26.77-25.4-66.65 3.49-96.18 23.36-23.94 47.34-47.3 70.94-70.97 12.27-12.33 13.27-25.5 2.91-35.96z m161.59-47.34c-10.59-4.6-19.68-1.34-27.43 6.4-47.8 47.65-95.64 95.33-143.33 143.13-10.9 10.95-11.16 24.51-1.38 34.4 9.71 9.8 24.4 10.49 34.72 0.19 48.57-48.41 96.91-97.06 145.06-145.93 3.99-4.06 5.75-10.26 7.29-13.14-0.7-13.44-5.49-20.95-14.93-25.05z m31.76-125.4c-31.77 0.15-55.7 5.82-74.08 22.33-30.19 27.12-58.89 55.96-87.01 85.26-13.08 13.64-3.53 36.54 15.38 37.69 7.06 0.46 16.08-3.94 21.52-9.04 25.7-24.05 49.99-49.64 75.81-73.65 16.04-14.94 36.29-18.81 57.39-13.21 50.72 13.48 67.02 73.23 30.31 110.81-24.36 24.93-49.34 49.33-73.97 74.04-11.47 11.53-12.51 25.32-2.95 35.35 9.44 9.92 26.89 9.58 37.79-1.19 25.09-24.74 50.76-48.99 74.66-74.84 33.76-36.58 42.47-79.4 22.9-125.44-19.25-45.32-56.46-65.7-97.75-68.11z" p-id="3091"></path></svg>