<?xml version="1.0" standalone="no"?><!DOCTYPE svg PUBLIC "-//W3C//DTD SVG 1.1//EN" "http://www.w3.org/Graphics/SVG/1.1/DTD/svg11.dtd"><svg t="1624356653868" class="icon" viewBox="0 0 1024 1024" version="1.1" xmlns="http://www.w3.org/2000/svg" p-id="4621" xmlns:xlink="http://www.w3.org/1999/xlink" width="200" height="200"><defs><style type="text/css"></style></defs><path d="M184.32 432.64c-45.056 0-81.92 36.864-81.92 81.92s36.864 81.92 81.92 81.92 81.92-36.864 81.92-81.92c0-45.568-36.864-81.92-81.92-81.92z m327.68 0c-45.056 0-81.92 36.864-81.92 81.92s36.864 81.92 81.92 81.92 81.92-36.864 81.92-81.92c0-45.568-36.864-81.92-81.92-81.92z m327.68 0c-45.056 0-81.92 36.864-81.92 81.92s36.864 81.92 81.92 81.92 81.92-36.864 81.92-81.92c0-45.568-36.864-81.92-81.92-81.92z" p-id="4622"></path></svg>