<?xml version="1.0" standalone="no"?><!DOCTYPE svg PUBLIC "-//W3C//DTD SVG 1.1//EN" "http://www.w3.org/Graphics/SVG/1.1/DTD/svg11.dtd"><svg t="1623828500885" class="icon" viewBox="0 0 1024 1024" version="1.1" xmlns="http://www.w3.org/2000/svg" p-id="12212" xmlns:xlink="http://www.w3.org/1999/xlink" width="200" height="200"><defs><style type="text/css"></style></defs><path d="M117.333333 832a39.253333 39.253333 0 0 1-11.946666-2.133333 32.853333 32.853333 0 0 1-20.053334-33.28A520.533333 520.533333 0 0 1 572.586667 332.8V224a32 32 0 0 1 18.773333-29.44 33.28 33.28 0 0 1 34.56 5.973333l302.506667 276.48a32 32 0 0 1 0 46.933334l-302.506667 276.906666a32 32 0 0 1-53.333333-23.893333v-132.266667a480 480 0 0 0-65.28-4.693333 453.546667 453.546667 0 0 0-364.373334 179.626667 32.426667 32.426667 0 0 1-25.6 12.373333z m389.973334-256a526.506667 526.506667 0 0 1 103.253333 10.24 32.853333 32.853333 0 0 1 26.026667 31.573333v85.333334l222.72-203.946667L636.586667 298.666667v64.853333a32 32 0 0 1-32 32 457.813333 457.813333 0 0 0-430.08 298.666667 516.693333 516.693333 0 0 1 332.8-118.186667z" p-id="12213"></path></svg>