<?xml version="1.0" standalone="no"?><!DOCTYPE svg PUBLIC "-//W3C//DTD SVG 1.1//EN" "http://www.w3.org/Graphics/SVG/1.1/DTD/svg11.dtd"><svg t="1624291019130" class="icon" viewBox="0 0 1024 1024" version="1.1" xmlns="http://www.w3.org/2000/svg" p-id="687" xmlns:xlink="http://www.w3.org/1999/xlink" width="200" height="200"><defs><style type="text/css"></style></defs><path d="M354.51781719 425.76003916c-11.24823516 3.74941143-26.24675977-3.74941143-29.9961712-18.74705801-3.74941143-14.9994044 3.74941143-29.99705098 18.74793692-29.99705097h11.24911318c14.99764658 0 26.24675977 11.24823516 26.24676065 26.24676064 0 11.24823516-11.24911406 22.49734834-26.24676065 22.49734834z m153.73290762 0c-14.99852549 3.74941143-29.99705098-3.74941143-33.74646241-18.74705801-3.74941143-14.9994044 3.75029033-29.99705098 18.74793692-33.7464624h11.24911406c14.99852549 0 26.24675977 11.24823516 26.24675977 26.24676065 3.74941143 14.99764658-7.49882285 26.24675977-22.49734835 26.24675976z m71.24145732 142.48379355c-11.24823516 0-22.49734834-7.49882285-22.49734835-18.74793691s7.49970176-22.49734834 18.74793692-22.49734833c11.24911406-3.74941143 22.49734834 3.74941143 26.24763868 14.99852548 3.74941143 11.24823516-3.75029033 22.49734834-14.9985255 26.24675976h-7.49970175z m119.98644433 0c-11.24823516 0-22.49734834-7.49882285-22.49734833-18.74793691s7.49970176-22.49734834 18.7479369-22.49734833c11.24911406-3.74941143 22.49734834 3.74941143 26.24676065 14.99852548 3.75029033 11.24823516-3.74941143 22.49734834-14.99764658 26.24675976h-7.49970264zM639.4854043 444.50797607c-104.98791973 0-183.72907881 67.49204589-183.72907881 149.98261729s82.49057138 149.98261641 183.72907881 149.98261641c22.49734834 0 44.99557646-3.74941143 63.74263447-11.24823516l59.99410107 29.99705097-14.99852549-52.49439931c41.24528526-26.24675977 71.24145732-71.24233623 74.99086875-119.98644522 0-78.74115908-86.23998281-146.23320498-183.7290788-146.23320498z m-213.72525088-157.48231904c-119.98644521 0-217.47466231 78.74115908-217.4746623 176.22937705 3.74941143 59.99410107 33.74558349 112.48762148 86.23998281 138.73526103l-22.49734835 63.74263448 74.99086876-37.49587471c26.24763867 7.49882285 48.74410898 11.24823516 74.99174766 11.24823515h18.747058c-3.74853252-14.99764658-7.49882285-29.99705098-7.49882285-44.99469667 3.75029033-97.48821709 86.24086172-168.73055333 183.72907881-164.98114278h22.49734834c-11.24823516-78.74115908-104.98791973-142.48379356-213.72525088-142.48379355z m89.98939424 674.92309395C268.27783438 965.6981624 65.80169756 763.22114667 62.05140722 515.7494334 58.3019958 268.27772012 260.77901152 65.8015833 508.2507248 62.05129297s449.94872901 198.7276043 453.69814043 446.19931758V512.00002197c0 247.47171328-198.7276043 449.94872901-446.19931757 449.94872901z" fill="#67CC79" p-id="688"></path></svg>